<?xml version="1.0" encoding="utf-8"?>
<!-- Generator: Adobe Illustrator 27.5.0, SVG Export Plug-In . SVG Version: 6.00 Build 0)  -->
<svg version="1.1" id="レイヤー_1" xmlns="http://www.w3.org/2000/svg" xmlns:xlink="http://www.w3.org/1999/xlink" x="0px"
	 y="0px" viewBox="0 0 79 79" style="enable-background:new 0 0 79 79;" xml:space="preserve">
<style type="text/css">
	.st0{fill:#FF0000;}
	.st1{fill:#17191E;}
</style>
<path class="st0" d="M28.8,63c-3.5-3.1-4.5-9.7-3-14.4c2.5,3,6,3.9,9.5,4.5c5.5,0.8,11,0.5,16.1-2c0.6-0.3,1.1-0.7,1.8-1.1
	c0.5,1.4,0.6,2.8,0.4,4.2c-0.4,3.5-2.2,6.1-4.9,8.1c-1.1,0.8-2.3,1.5-3.4,2.3c-3.5,2.3-4.5,5.1-3.1,9.1c0,0.1,0.1,0.2,0.1,0.4
	c-1.8-0.8-3.1-1.9-4.1-3.5c-1.1-1.6-1.6-3.4-1.6-5.3c0-0.9,0-1.9-0.1-2.8c-0.3-2.2-1.4-3.2-3.4-3.3c-2.1-0.1-3.7,1.2-4.1,3.2
	C28.9,62.7,28.8,62.9,28.8,63L28.8,63z"/>
<path class="st1" d="M11.4,50.1c0,0,9.5-4.6,18.9-4.6l7.1-22.1c0.3-1.1,1-1.8,1.9-1.8c0.9,0,1.7,0.7,1.9,1.8l7.1,22.1
	c11.2,0,18.9,4.6,18.9,4.6S51.4,6.4,51.3,6.4c-0.5-1.3-1.2-2.1-2.3-2.1H29.8c-1,0-1.8,0.8-2.3,2.1C27.4,6.4,11.4,50.1,11.4,50.1z"/>
</svg>
