<?xml version="1.0" encoding="utf-8"?>
<!-- Generator: Adobe Illustrator 27.5.0, SVG Export Plug-In . SVG Version: 6.00 Build 0)  -->
<svg version="1.1" id="レイヤー_1" xmlns="http://www.w3.org/2000/svg" xmlns:xlink="http://www.w3.org/1999/xlink" x="0px"
	 y="0px" viewBox="0 0 280 280" style="enable-background:new 0 0 280 280;" xml:space="preserve">
<style type="text/css">
	.st0{fill:url(#SVGID_1_);}
	.st1{fill:#FFFFFF;}
</style>
<linearGradient id="SVGID_1_" gradientUnits="userSpaceOnUse" x1="140" y1="269.5" x2="140" y2="12.5" gradientTransform="matrix(1 0 0 -1 0 281)">
	<stop  offset="0" style="stop-color:#7BCBD4"/>
	<stop  offset="1" style="stop-color:#29C6B7"/>
</linearGradient>
<path class="st0" d="M140,11.5L140,11.5c71,0,128.5,57.5,128.5,128.5l0,0c0,71-57.5,128.5-128.5,128.5l0,0
	C69,268.5,11.5,211,11.5,140l0,0C11.5,69,69,11.5,140,11.5z"/>
<path class="st1" d="M81.1,145.5l87.6-87c1.6-1.6,4.3,0.4,3.2,2.4l-32.6,59.8c-0.7,1.3,0.2,3,1.8,3h56.3c1.8,0,2.7,2.2,1.4,3.5
	l-98.7,92.1c-1.8,1.7-4.4-0.7-3-2.6l46.7-64.5c1-1.3,0-3.2-1.6-3.2H82.5C80.7,148.9,79.8,146.7,81.1,145.5z"/>
</svg>
