<?xml version="1.0" encoding="utf-8"?>
<!-- Generator: Adobe Illustrator 27.5.0, SVG Export Plug-In . SVG Version: 6.00 Build 0)  -->
<svg version="1.1" id="Layer_1" xmlns="http://www.w3.org/2000/svg" xmlns:xlink="http://www.w3.org/1999/xlink" x="0px" y="0px"
	 viewBox="0 0 209.5 209.5" style="enable-background:new 0 0 209.5 209.5;" xml:space="preserve">
<style type="text/css">
	.st0{fill:#F4801F;}
	.st1{fill:#F9AB41;}
</style>
<path class="st0" d="M143.1,150.8l1.1-3.7c1.3-4.4,0.8-8.5-1.3-11.5c-2-2.8-5.3-4.4-9.2-4.6l-75.5-1c-0.8,0-1.5-0.7-1.4-1.5
	c0-0.2,0-0.3,0.1-0.5c0.3-0.8,1-1.3,1.8-1.3l76.3-1c9-0.4,18.8-7.8,22.3-16.7l4.3-11.4c0.1-0.3,0.2-0.7,0.2-1c0-0.2,0-0.4-0.1-0.5
	c-6-26.8-32.6-43.6-59.3-37.6C85.2,62.3,71.5,74.6,65.9,91C56,83.6,42,85.7,34.6,95.6c-4,5.4-5.4,12.3-3.7,18.8
	C13.4,114.9-0.5,129.4,0,147c0,1.3,0.1,2.6,0.3,3.9c0.1,0.7,0.7,1.3,1.5,1.3h139.5l0,0C142.1,152.1,142.8,151.6,143.1,150.8z"/>
<path class="st1" d="M168.2,98.5c-0.7,0-1.4,0-2.1,0.1c-0.1,0-0.2,0-0.3,0.1c-0.4,0.1-0.7,0.4-0.8,0.8l-3,10.3
	c-1.3,4.4-0.8,8.5,1.3,11.5c2.2,2.9,5.6,4.6,9.2,4.6l16.1,1c0.5,0,0.9,0.2,1.1,0.6c0.3,0.4,0.3,0.9,0.2,1.4c-0.3,0.8-1,1.3-1.8,1.3
	l-16.7,1c-9.1,0.4-18.9,7.8-22.3,16.7L148,151c-0.2,0.5,0.1,1,0.5,1.2c0.1,0,0.2,0.1,0.3,0.1h57.6c0.7,0,1.4-0.5,1.5-1.2
	c6.2-22-6.7-44.8-28.7-51C175.7,99.1,172,98.5,168.2,98.5L168.2,98.5z"/>
</svg>
