<?xml version="1.0" encoding="utf-8"?>
<!-- Generator: Adobe Illustrator 27.5.0, SVG Export Plug-In . SVG Version: 6.00 Build 0)  -->
<svg version="1.1"
	 id="svg3476" xmlns:cc="http://creativecommons.org/ns#" xmlns:rdf="http://www.w3.org/1999/02/22-rdf-syntax-ns#" xmlns:dc="http://purl.org/dc/elements/1.1/" xmlns:sodipodi="http://sodipodi.sourceforge.net/DTD/sodipodi-0.dtd" xmlns:inkscape="http://www.inkscape.org/namespaces/inkscape" xmlns:svg="http://www.w3.org/2000/svg" inkscape:version="0.91 r13725" sodipodi:docname="CSS3.svg"
	 xmlns="http://www.w3.org/2000/svg" xmlns:xlink="http://www.w3.org/1999/xlink" x="0px" y="0px" viewBox="0 0 409.6 409.6"
	 style="enable-background:new 0 0 409.6 409.6;" xml:space="preserve">
<style type="text/css">
	.st0{fill:#264DE4;}
	.st1{fill:#2965F1;}
	.st2{fill:#EBEBEB;}
	.st3{fill:#FFFFFF;}
</style>
<sodipodi:namedview  bordercolor="#666666" borderopacity="1.0" fit-margin-bottom="0" fit-margin-left="0" fit-margin-right="0" fit-margin-top="0" id="base" inkscape:current-layer="layer1" inkscape:cx="181.367" inkscape:cy="256" inkscape:document-units="px" inkscape:pageopacity="0.0" inkscape:pageshadow="2" inkscape:window-height="704" inkscape:window-maximized="1" inkscape:window-width="1366" inkscape:window-x="0" inkscape:window-y="27" inkscape:zoom="0.35" pagecolor="#ffffff" showgrid="false">
	</sodipodi:namedview>
<g id="layer1" transform="translate(-193.633,-276.3622)" inkscape:groupmode="layer" inkscape:label="Calque 1">
	<g id="g3013" transform="translate(119,276.3622)">
		<polygon id="polygon2989" class="st0" points="412.2,91 388.1,362.2 279.3,392.3 170.7,362.2 146.6,91 		"/>
		<polygon id="polygon2991" class="st1" points="367.4,344.9 388,113.2 279.4,113.2 279.4,369.2 		"/>
		<polygon id="polygon2993" class="st2" points="202,213.8 205,247 279.4,247 279.4,213.8 		"/>
		<polygon id="polygon2995" class="st2" points="279.4,146.4 279.3,146.4 196,146.4 199,179.7 279.4,179.7 		"/>
		<polygon id="polygon2997" class="st2" points="279.4,334.7 279.4,300.1 279.3,300.2 242.2,290.1 239.8,263.7 221.9,263.7 
			206.5,263.7 211.1,315.9 279.3,334.8 		"/>
		<path id="path2999" inkscape:connector-curvature="0" d="M209.1,17.3h40.3v16.8h-23.4V51h23.4v16.8h-40.3V17.3z"/>
		<path id="path3001" inkscape:connector-curvature="0" d="M257.4,17.3h40.3v14.6h-23.4v2.9h23.4v33.7h-40.3V53.2h23.4v-2.9h-23.4
			V17.3z"/>
		<path id="path3003" inkscape:connector-curvature="0" d="M305.8,17.3h40.3v14.6h-23.4v2.9h23.4v33.7h-40.3V53.2h23.4v-2.9h-23.4
			V17.3z"/>
		<polygon id="polygon3005" class="st3" points="320.2,247 316.4,290.1 279.3,300.2 279.3,334.7 347.5,315.9 348,310.3 355.8,222.7 
			356.7,213.8 362.6,146.4 279.3,146.4 279.3,179.7 326.2,179.7 323.2,213.8 279.3,213.8 279.3,247 		"/>
	</g>
</g>
</svg>
