<?xml version="1.0" encoding="utf-8"?>
<!-- Generator: Adobe Illustrator 27.5.0, SVG Export Plug-In . SVG Version: 6.00 Build 0)  -->
<svg version="1.1" id="レイヤー_1" xmlns="http://www.w3.org/2000/svg" xmlns:xlink="http://www.w3.org/1999/xlink" x="0px"
	 y="0px" viewBox="0 0 512 512" style="enable-background:new 0 0 512 512;" xml:space="preserve">
<style type="text/css">
	.st0{fill:#FFFFFF;}
	.st1{stroke:#066DA5;stroke-width:38;}
	.st2{fill:#066DA5;}
</style>
<path class="st0" d="M88,16h336c39.8,0,72,32.2,72,72v336c0,39.8-32.2,72-72,72H88c-39.8,0-72-32.2-72-72V88C16,48.2,48.2,16,88,16z
	"/>
<path class="st1" d="M293.5,227.9h39.4 M246.6,227.9H286 M200.7,227.9h39.4 M154.8,227.9h38.4 M107.9,227.9h39.4 M154.8,184.8h38.4
	 M200.7,184.8h39.4 M246.6,184.8H286 M246.6,141.6H286"/>
<path class="st2" d="M458.5,229.8c0,0-16.9-15.9-51.6-10.3c-3.8-27.2-32.8-43.1-32.8-43.1s-27.2,32.8-7.5,69.4
	c-5.6,2.8-15,6.6-29.1,6.6H79.8c-4.7,17.8-4.7,135.9,124.7,135.9c92.8,0,162.2-43.1,195-121.9C448.2,270.1,458.5,229.8,458.5,229.8"
	/>
</svg>
