<?xml version="1.0" encoding="utf-8"?>
<!-- Generator: Adobe Illustrator 27.5.0, SVG Export Plug-In . SVG Version: 6.00 Build 0)  -->
<svg version="1.1" id="Layer_1" xmlns="http://www.w3.org/2000/svg" xmlns:xlink="http://www.w3.org/1999/xlink" x="0px" y="0px"
	 viewBox="0 0 200 200" style="enable-background:new 0 0 200 200;" xml:space="preserve">
<style type="text/css">
	.st0{display:none;}
	.st1{display:inline;}
	.st2{fill:none;}
	.st3{fill:#0061FF;}
</style>
<g id="Editble" class="st0">
	<g class="st1">
		<rect x="-167" y="73.2" class="st2" width="506" height="71.8"/>
		<path d="M-61.8,81.8h16.3c10.4,0,19,6.1,19,19.8v2.9c0,13.8-8,20-18.7,20h-16.6L-61.8,81.8L-61.8,81.8z M-52.6,89.5v27.2h7
			c5.9,0,9.9-3.9,9.9-12.5V102c0-8.6-4.1-12.5-10.2-12.5C-45.9,89.5-52.6,89.5-52.6,89.5z M-21.6,90h7.3l1.1,8
			c1.4-5.5,4.9-8.3,11.3-8.3h2.2v9.2h-3.7c-7.4,0-9.2,2.6-9.2,9.9v15.8h-9C-21.6,124.6-21.6,90-21.6,90z M2.3,108v-1
			c0-11.6,7.4-17.9,17.5-17.9c10.3,0,17.5,6.4,17.5,17.9v1c0,11.4-7,17.5-17.5,17.5C8.6,125.5,2.3,119.4,2.3,108z M28.1,107.9v-0.8
			c0-6.5-3.2-10.3-8.3-10.3c-5,0-8.4,3.5-8.4,10.3v0.8c0,6.2,3.2,9.7,8.3,9.7C24.9,117.6,28.1,114.2,28.1,107.9z M42,90h7.6l0.9,6.6
			c1.9-4.4,5.7-7.4,11.4-7.4c8.8,0,14.6,6.4,14.6,18v1c0,11.4-6.4,17.3-14.6,17.3c-5.5,0-9.2-2.5-11-6.5v17.5H42V90z M67.3,108v-0.8
			c0-6.9-3.5-10.3-8.3-10.3c-5,0-8.4,3.8-8.4,10.3v0.7c0,6.1,3.2,10,8.2,10C64,117.7,67.3,114.2,67.3,108z M89.7,118.2l-0.7,6.3
			h-7.8V78.4H90v17.8c1.9-4.5,5.8-7,11.2-7c8.2,0.1,14.3,5.8,14.3,17.3v1c0,11.5-5.8,18-14.6,18C95.3,125.5,91.5,122.7,89.7,118.2z
			 M106.5,107.5v-0.8c0-6.4-3.5-9.8-8.3-9.8c-5,0-8.4,4-8.4,10v0.7c0,6.5,3.3,10.2,8.3,10.2C103.3,117.7,106.5,114.2,106.5,107.5z
			 M119.6,108v-1c0-11.6,7.4-17.9,17.5-17.9c10.3,0,17.5,6.4,17.5,17.9v1c0,11.4-7.1,17.5-17.5,17.5
			C125.9,125.5,119.6,119.4,119.6,108z M145.4,107.9v-0.8c0-6.5-3.2-10.3-8.3-10.3c-5,0-8.4,3.5-8.4,10.3v0.8c0,6.2,3.2,9.7,8.3,9.7
			C142.2,117.6,145.4,114.2,145.4,107.9z M166.3,106.6l-12.1-16.7h10.4l7,10.4l7.1-10.4H189l-12.3,16.6l13,18h-10.2l-8-11.5
			l-7.7,11.5h-10.6L166.3,106.6z"/>
	</g>
</g>
<path class="st3" d="M100.1,49.6L52.6,80l47.6,30.3l-47.6,30.3L5,110.1l47.6-30.3L5,49.6l47.6-30.3L100.1,49.6z M52.3,150.4
	L99.9,120l47.6,30.3l-47.6,30.3L52.3,150.4z M100.1,110.1l47.6-30.3l-47.6-30.2l47.3-30.3L195,49.6L147.4,80l47.6,30.3l-47.6,30.3
	L100.1,110.1z"/>
</svg>
