<?xml version="1.0" encoding="utf-8"?>
<!-- Generator: Adobe Illustrator 27.5.0, SVG Export Plug-In . SVG Version: 6.00 Build 0)  -->
<svg version="1.1" id="レイヤー_1" xmlns="http://www.w3.org/2000/svg" xmlns:xlink="http://www.w3.org/1999/xlink" x="0px"
	 y="0px" viewBox="0 0 96 95.5" style="enable-background:new 0 0 96 95.5;" xml:space="preserve">
<style type="text/css">
	.st0{fill:#52218A;}
	.st1{fill:#6C33AF;}
	.st2{fill:#854CC7;}
	.st3{fill:#B179F1;}
	.st4{opacity:0.25;}
	.st5{fill-rule:evenodd;clip-rule:evenodd;fill:url(#SVGID_1_);}
</style>
<g>
	<path class="st0" d="M19.6,70.6c-1,0.8-2.3,1-3.5,0.5l-6.1-2.5c-1.2-0.5-2-1.7-2.1-3.1V30c0-1.3,0.8-2.5,2.1-3.1l6.1-2.5
		c1.2-0.5,2.5-0.3,3.4,0.5l1.4,1.1c-0.8-0.6-2-0.4-2.6,0.4c-0.2,0.3-0.3,0.7-0.3,1.1v40.3c0,1,0.8,1.8,1.8,1.8
		c0.4,0,0.8-0.1,1.1-0.3L19.6,70.6z"/>
	<path class="st1" d="M10.1,68.6c-1.2-0.5-2-1.7-2.1-3.1v-0.3c0,1.1,0.9,1.9,1.9,1.9c0.5,0,1-0.2,1.4-0.6L63,9.4
		c1.5-1.5,3.8-1.9,5.7-1l16.5,7.9c1.7,0.8,2.8,2.6,2.8,4.5v0.2c0-1.7-1.4-3.2-3.2-3.2c-0.7,0-1.4,0.3-2,0.7L20.9,69.4l-1.4,1.2
		c-1,0.8-2.3,1-3.5,0.5L10.1,68.6z"/>
	<path class="st2" d="M10.1,26.9C8.8,27.4,8,28.6,8,30v0.3c0-1.1,0.9-1.9,1.9-1.9c0.5,0,1,0.2,1.4,0.6L63,86.1
		c1.5,1.5,3.8,1.9,5.7,1l16.5-7.9c1.7-0.8,2.8-2.6,2.8-4.5v-0.2c0,1.7-1.4,3.2-3.2,3.2c-0.7,0-1.4-0.3-2-0.7L20.9,26.1l-1.4-1.2
		c-1-0.8-2.3-1-3.5-0.5L10.1,26.9z"/>
	<path class="st3" d="M68.7,87c-1.9,0.9-4.2,0.5-5.7-1c1.1,1.1,3,1.1,4.1,0c0.5-0.5,0.8-1.3,0.9-2.1V11.5c0-1.6-1.3-2.9-2.9-2.9
		c-0.8,0-1.5,0.3-2.1,0.9c1.5-1.5,3.8-1.9,5.7-1l16.5,7.9c1.7,0.8,2.8,2.6,2.8,4.5v53.7c0,1.9-1.1,3.7-2.8,4.5L68.7,87z"/>
	<g class="st4">
		
			<linearGradient id="SVGID_1_" gradientUnits="userSpaceOnUse" x1="48" y1="310.2062" x2="48" y2="389.7918" gradientTransform="matrix(1 0 0 1 0 -302.25)">
			<stop  offset="0" style="stop-color:#FFFFFF"/>
			<stop  offset="1" style="stop-color:#FFFFFF;stop-opacity:0"/>
		</linearGradient>
		<path class="st5" d="M65.4,87.4c1.1,0.3,2.3,0.1,3.3-0.4l16.5-7.9c1.7-0.8,2.8-2.6,2.8-4.5V20.9c0-1.9-1.1-3.7-2.8-4.5L68.7,8.4
			c-1.2-0.6-2.5-0.6-3.7-0.2c-0.7,0.2-1.4,0.7-1.9,1.2L36.4,38.8L20.9,26.1l-1.4-1.2c-0.8-0.7-2-1-3-0.7c-0.2,0-0.3,0.1-0.4,0.1
			l-6.1,2.5c-1.2,0.5-1.9,1.6-2.1,2.8c0,0.1,0,0.2,0,0.2v35.5c0,0.1,0,0.2,0,0.3c0.1,1.2,0.9,2.3,2.1,2.8l6.1,2.5
			c0.1,0.1,0.3,0.1,0.4,0.2c1.1,0.3,2.2,0,3-0.7l1.4-1.1l15.5-12.7L63,86.1C63.7,86.7,64.5,87.2,65.4,87.4z M68,30.8L47.3,47.7
			L68,64.7V30.8z M18,36.3l10.3,11.4L18,59.2V36.3z"/>
	</g>
</g>
</svg>
