<?xml version="1.0" encoding="utf-8"?>
<!-- Generator: Adobe Illustrator 27.5.0, SVG Export Plug-In . SVG Version: 6.00 Build 0)  -->
<svg version="1.1" id="レイヤー_1" xmlns="http://www.w3.org/2000/svg" xmlns:xlink="http://www.w3.org/1999/xlink" x="0px"
	 y="0px" viewBox="0 0 250 250" style="enable-background:new 0 0 250 250;" xml:space="preserve">
<style type="text/css">
	.st0{display:none;}
	.st1{display:inline;fill:#00FFFF;fill-opacity:0.2;}
	.st2{fill:none;}
	.st3{clip-path:url(#SVGID_00000012457867078446291880000000736777722872305049_);}
	.st4{fill:#FFA000;}
	.st5{opacity:0.12;fill:url(#SVGID_00000036959546815544973040000017712798678621317816_);enable-background:new    ;}
	.st6{fill:#F57C00;}
	.st7{opacity:0.2;fill:url(#SVGID_00000094605211949625542910000010314775853315613877_);enable-background:new    ;}
	.st8{fill:#FFCA28;}
	.st9{fill:#FFFFFF;fill-opacity:0.2;}
	.st10{opacity:0.2;fill:#A52714;enable-background:new    ;}
	.st11{fill:url(#SVGID_00000122705113645990232210000009414435944873528255_);}
</style>
<g id="guides" class="st0">
	<rect id="XMLID_13_" x="-251.6" y="229" class="st1" width="753.2" height="64"/>
	<rect id="XMLID_10_" x="-251.6" y="-43" class="st1" width="753.2" height="64"/>
	<rect x="437.5" y="-43" class="st1" width="64" height="336"/>
	<rect x="-54.7" y="-43" class="st1" width="48" height="336"/>
	<rect x="-251.5" y="-43" class="st1" width="64" height="336"/>
</g>
<g id="Layer_1">
	<g>
		<g id="XMLID_19_">
			<rect id="XMLID_21_" x="10" y="10" class="st2" width="230" height="230"/>
			<g>
				<g>
					<defs>
						<path id="SVGID_1_" d="M181.9,66.8c-0.5-2.6-2.9-4.3-5.5-4c-1,0.1-1.9,0.6-2.6,1.3l-24.9,24.9l-19.5-37.3
							c-1.2-2.4-4.1-3.2-6.5-2c-0.8,0.5-1.6,1.2-2,2l-10.7,20.4L83.3,22.1c-1.2-2.3-4.2-3.2-6.5-1.9c-1.3,0.7-2.3,2-2.5,3.5l-26,166
							l69.4,38.9c4.3,2.4,9.7,2.4,14,0l70-38.9L181.9,66.8z"/>
					</defs>
					<clipPath id="SVGID_00000106862157792932989320000011369152059237452959_">
						<use xlink:href="#SVGID_1_"  style="overflow:visible;"/>
					</clipPath>
					<g style="clip-path:url(#SVGID_00000106862157792932989320000011369152059237452959_);">
						<path class="st4" d="M48.3,189.7l26-166c0.4-2.6,2.9-4.4,5.5-4c1.4,0.2,2.8,1.2,3.5,2.5l26.8,50.1l10.7-20.4
							c1.2-2.4,4.1-3.2,6.5-2c0.8,0.5,1.6,1.2,2,2l72.4,137.8H48.3z"/>
						
							<linearGradient id="SVGID_00000104669430381419260570000017559233563313404805_" gradientUnits="userSpaceOnUse" x1="78.2095" y1="202.8632" x2="68.6261" y2="197.8559" gradientTransform="matrix(1 0 0 1 0 -70.0064)">
							<stop  offset="0" style="stop-color:#A52714"/>
							<stop  offset="0.4" style="stop-color:#A52714;stop-opacity:0.5"/>
							<stop  offset="0.8" style="stop-color:#A52714;stop-opacity:0"/>
						</linearGradient>
						
							<path style="opacity:0.12;fill:url(#SVGID_00000104669430381419260570000017559233563313404805_);enable-background:new    ;" d="
							M137,20.8L10,10v230l38.3-50.3L137,20.8z"/>
						<path class="st6" d="M138.1,125l-27.9-52.8L48.3,189.7L138.1,125z"/>
						
							<linearGradient id="SVGID_00000183948669804317936890000001817293584449089445_" gradientUnits="userSpaceOnUse" x1="118.9253" y1="188.9317" x2="114.6368" y2="184.6432" gradientTransform="matrix(1 0 0 1 0 -70.0064)">
							<stop  offset="0" style="stop-color:#A52714;stop-opacity:0.8"/>
							<stop  offset="0.5" style="stop-color:#A52714;stop-opacity:0.21"/>
							<stop  offset="1" style="stop-color:#A52714;stop-opacity:0"/>
						</linearGradient>
						
							<path style="opacity:0.2;fill:url(#SVGID_00000183948669804317936890000001817293584449089445_);enable-background:new    ;" d="
							M10,10h230v230H10C10,240,10,10,10,10z"/>
						<path class="st8" d="M201.7,189.7l-19.9-123c-0.5-2.6-2.9-4.3-5.5-4c-1,0.1-1.9,0.6-2.6,1.3L48.3,189.7l69.4,38.9
							c4.3,2.4,9.7,2.4,14,0L201.7,189.7z"/>
						<path class="st9" d="M181.9,66.8c-0.5-2.6-2.9-4.3-5.5-4c-1,0.1-1.9,0.6-2.6,1.3l-24.9,24.9l-19.5-37.3
							c-1.2-2.4-4.1-3.2-6.5-2c-0.8,0.5-1.6,1.2-2,2l-10.7,20.4L83.3,22.1c-1.2-2.3-4.2-3.2-6.5-1.9c-1.3,0.7-2.3,2-2.5,3.5l-26,166
							h-0.1l0.1,0.1l0.7,0.4l99.8-99.9l24.9-24.9c1.9-1.9,4.9-1.9,6.8,0c0.7,0.7,1.2,1.6,1.3,2.6l19.6,121.8l0.2-0.1L181.9,66.8z
							 M48.6,189.4L74.3,24.9c0.4-2.6,2.9-4.4,5.5-4c1.4,0.2,2.8,1.2,3.5,2.5l26.8,50.1l10.7-20.4c1.2-2.4,4.1-3.2,6.5-2
							c0.8,0.5,1.6,1.2,2,2l19.2,36.4L48.6,189.4z"/>
						<path class="st10" d="M131.7,227.4c-4.3,2.4-9.7,2.4-14,0l-69.2-38.8l-0.1,1.1l69.4,38.9c4.3,2.4,9.7,2.4,14,0l70-38.9
							l-0.1-1.1L131.7,227.4z"/>
						
							<linearGradient id="SVGID_00000066512858313949605850000002074898666766005386_" gradientUnits="userSpaceOnUse" x1="-619.3008" y1="-1053.115" x2="-559.3211" y2="-1113.0948" gradientTransform="matrix(2.67 0 0 -2.67 1697.7318 -2755.1248)">
							<stop  offset="0" style="stop-color:#FFFFFF;stop-opacity:0.1"/>
							<stop  offset="1" style="stop-color:#FFFFFF;stop-opacity:0"/>
						</linearGradient>
						<path style="fill:url(#SVGID_00000066512858313949605850000002074898666766005386_);" d="M181.9,66.8c-0.5-2.6-2.9-4.3-5.5-4
							c-1,0.1-1.9,0.6-2.6,1.3l-24.9,24.9l-19.5-37.3c-1.2-2.4-4.1-3.2-6.5-2c-0.8,0.5-1.6,1.2-2,2l-10.7,20.4L83.3,22.1
							c-1.2-2.3-4.2-3.2-6.5-1.9c-1.3,0.7-2.3,2-2.5,3.5l-26,166l69.4,38.9c4.3,2.4,9.7,2.4,14,0l70-38.9L181.9,66.8z"/>
					</g>
				</g>
			</g>
		</g>
	</g>
</g>
</svg>
