<?xml version="1.0" encoding="utf-8"?>
<!-- Generator: Adobe Illustrator 27.5.0, SVG Export Plug-In . SVG Version: 6.00 Build 0)  -->
<svg version="1.1" id="レイヤー_1" focusable="false"
	 xmlns="http://www.w3.org/2000/svg" xmlns:xlink="http://www.w3.org/1999/xlink" x="0px" y="0px" viewBox="0 0 30 30"
	 style="enable-background:new 0 0 30 30;" xml:space="preserve">
<style type="text/css">
	.st0{fill:#FFFFFF;}
	.st1{fill:#663399;}
</style>
<path class="st0" d="M26,15h-7v2h4.8c-0.7,3-2.9,5.5-5.8,6.5L6.5,12c1.2-3.5,4.6-6,8.5-6c3,0,5.7,1.5,7.4,3.8l1.5-1.3
	C21.9,5.8,18.7,4,15,4C9.8,4,5.4,7.7,4.3,12.6l13.2,13.2C22.3,24.6,26,20.2,26,15z M4,15.1c0,2.8,1.1,5.5,3.2,7.6s4.9,3.2,7.6,3.2
	L4,15.1z"/>
<path class="st1" d="M15,1C7.3,1,1,7.3,1,15s6.3,14,14,14s14-6.3,14-14S22.7,1,15,1z M7.2,22.8C5.1,20.7,4,17.9,4,15.2L14.9,26
	C12.1,25.9,9.3,24.9,7.2,22.8z M17.4,25.7L4.3,12.6C5.4,7.7,9.8,4,15,4c3.7,0,6.9,1.8,8.9,4.5l-1.5,1.3C20.7,7.5,18,6,15,6
	c-3.9,0-7.2,2.5-8.5,6L18,23.5c2.9-1,5.1-3.5,5.8-6.5H19v-2h7C26,20.2,22.3,24.6,17.4,25.7z"/>
</svg>
