<?xml version="1.0" encoding="utf-8"?>
<!-- Generator: Adobe Illustrator 27.5.0, SVG Export Plug-In . SVG Version: 6.00 Build 0)  -->
<svg version="1.1" id="レイヤー_1" xmlns="http://www.w3.org/2000/svg" xmlns:xlink="http://www.w3.org/1999/xlink" x="0px"
	 y="0px" viewBox="0 0 630 630" style="enable-background:new 0 0 630 630;" xml:space="preserve">
<style type="text/css">
	.st0{fill:#F7DF1E;}
</style>
<rect x="50" y="50" class="st0" width="530" height="530"/>
<path d="M406,464.1c10.7,17.4,24.6,30.2,49.1,30.2c20.6,0,33.8-10.3,33.8-24.6c0-17.1-13.5-23.1-36.3-33.1l-12.5-5.3
	c-35.9-15.3-59.8-34.5-59.8-75c0-37.4,28.5-65.8,72.9-65.8c31.7,0,54.4,11,70.8,39.9l-38.8,24.9c-8.5-15.3-17.8-21.3-32.1-21.3
	c-14.6,0-23.8,9.3-23.8,21.3c0,14.9,9.3,21,30.6,30.2l12.5,5.3c42.3,18.1,66.2,36.6,66.2,78.2c0,44.8-35.2,69.4-82.5,69.4
	c-46.3,0-76.1-22-90.8-50.9L406,464.1z M230.1,468.4c7.8,13.9,14.9,25.6,32.1,25.6c16.4,0,26.7-6.4,26.7-31.3V293.4h49.8v170
	c0,51.6-30.2,75-74.4,75c-39.9,0-63-20.6-74.7-45.5L230.1,468.4z"/>
</svg>
