<?xml version="1.0" encoding="utf-8"?>
<!-- Generator: Adobe Illustrator 27.5.0, SVG Export Plug-In . SVG Version: 6.00 Build 0)  -->
<svg version="1.1" id="レイヤー_1" xmlns="http://www.w3.org/2000/svg" xmlns:xlink="http://www.w3.org/1999/xlink" x="0px"
	 y="0px" viewBox="0 0 283 283" style="enable-background:new 0 0 283 283;" xml:space="preserve">
<style type="text/css">
	.st0{fill:#C63D14;}
	.st1{fill:#FFFFFF;}
</style>
<g>
	<path class="st0" d="M242.1,139.4c0-13.1-10.6-23.6-23.6-23.6c-0.8,0-1.7,0-2.5,0.1l32.5-95.8h-138l32.4,95.7c-0.5,0-1,0-1.4,0
		c-13.1,0-23.6,10.6-23.6,23.6c0,10.6,6.9,19.5,16.5,22.5c-5,8.7-11.4,16.6-18.6,23.4c-9.8,9.2-21,16.2-33.1,20.6
		c-14.4-7.4-21.3-23.9-15.1-38.4c0.7-1.6,1.4-3.3,2.1-4.9c10.5-2.4,18.3-11.8,18.3-23c0-13.1-10.6-23.6-23.6-23.6
		c-13.1,0-23.6,10.6-23.6,23.6c0,8,4,15.1,10.1,19.4c-5.9,13.3-14.5,27.3-17.1,43.4c-3.2,19.4,0,39.9,16.7,51.5
		c39,27,81.4-16.8,126-27.8c16.2-4,33.9-3.3,48.2-11.6c10.7-6.2,17.8-16.5,19.8-28c2-11.4-0.9-22.7-7.5-31.9
		C240,150.5,242.1,145.2,242.1,139.4L242.1,139.4z M165.1,139.5C165.1,139.5,165.1,139.5,165.1,139.5c0-8.7-4.6-16.2-11.4-20.3
		L179.5,67l25.9,52.7c-6.3,4.2-10.5,11.5-10.5,19.7c0,0.2,0,0.3,0,0.5L165.1,139.5L165.1,139.5z"/>
	<path class="st1" d="M247.9,139.4c0-14.4-10.3-26.3-24-28.9l32.6-96.2H102.4l32.7,96.4c-13.2,2.9-23,14.7-23,28.7
		c0,10.5,5.6,19.8,13.9,25c-4,6-8.8,11.6-14.2,16.7c-8.6,8.2-18.3,14.3-28.7,18.4c-10.5-6.6-14.9-19-10.3-29.8l0.4-0.8
		c0.2-0.5,0.5-1.1,0.7-1.6c11.5-4,19.8-14.9,19.8-27.8c0-16.2-13.2-29.4-29.4-29.4s-29.4,13.2-29.4,29.4c0,8.2,3.4,15.6,8.8,20.9
		c-1,2.1-2,4.2-3.1,6.4c-5,10.2-10.6,21.7-12.7,34.5c-4.2,25.4,2.6,45.7,19.1,57.2c10.1,7,20.3,9.7,30.5,9.7
		c19.3,0,38.9-9.7,58-19.2c13.8-6.8,28-13.9,42.1-17.4c5.2-1.3,10.6-2.1,16.3-2.9c11.3-1.6,23-3.3,33.4-9.3c12-7,20.2-18.6,22.6-32
		c2-11.5-0.4-23-6.3-32.8C246.3,150.3,247.9,145,247.9,139.4L247.9,139.4z M236.3,139.4c0,9.9-8,17.9-17.9,17.9
		c-9.9,0-17.9-8-17.9-17.9s8-17.9,17.9-17.9C228.3,121.6,236.3,129.6,236.3,139.4L236.3,139.4z M240.4,25.9l-28.8,84.9
		c-1.2,0.3-2.5,0.7-3.6,1.1l-28.4-58L151,111.6c-1.2-0.4-2.5-0.8-3.8-1l-28.7-84.7H240.4L240.4,25.9z M141.4,121.6
		c9.9,0,17.9,8,17.9,17.9s-8,17.9-17.9,17.9c-9.9,0-17.9-8-17.9-17.9S131.6,121.6,141.4,121.6L141.4,121.6z M64.1,121.7
		c9.9,0,17.9,8,17.9,17.9c0,9.9-8,17.9-17.9,17.9c-9.9,0-17.9-8-17.9-17.9C46.3,129.7,54.3,121.7,64.1,121.7L64.1,121.7z
		 M238.5,185.5c-1.7,10-7.9,18.8-17,24c-8.4,4.9-18.5,6.3-29.2,7.9c-5.7,0.8-11.7,1.7-17.5,3.1c-15.3,3.8-30.1,11.1-44.5,18.3
		c-28.7,14.3-53.5,26.6-76.9,10.4c-17.1-11.9-16.3-33.8-14.3-45.8C41,192.2,46,181.9,50.8,172c0.8-1.7,1.6-3.4,2.4-5.1
		c2.4,1,4.9,1.6,7.6,1.9c-4.9,16.2,2.8,33.9,19.1,42.2l2.2,1.1l2.4-0.8c12.8-4.6,24.7-11.9,35.2-21.8c6.8-6.4,12.6-13.5,17.4-21
		c1.4,0.2,2.9,0.3,4.4,0.3c16.2,0,29.4-13.2,29.4-29.4c0-8.7-3.8-16.6-9.9-22l18.5-37.4l18.7,38.1c-5.6,5.4-9.1,12.9-9.1,21.2
		c0,16.2,13.2,29.4,29.4,29.4c6.2,0,12-2,16.8-5.3C238.5,170.3,239.8,178,238.5,185.5L238.5,185.5z"/>
</g>
</svg>
