<?xml version="1.0" encoding="utf-8"?>
<!-- Generator: Adobe Illustrator 27.5.0, SVG Export Plug-In . SVG Version: 6.00 Build 0)  -->
<svg version="1.1" id="レイヤー_1" xmlns="http://www.w3.org/2000/svg" xmlns:xlink="http://www.w3.org/1999/xlink" x="0px"
	 y="0px" viewBox="0 0 52 52" style="enable-background:new 0 0 52 52;" xml:space="preserve">
<style type="text/css">
	.st0{fill-rule:evenodd;clip-rule:evenodd;fill:#FF2D20;}
</style>
<path class="st0" d="M49.1,12.4c0,0.1,0,0.1,0,0.2v10.3c0,0.3-0.1,0.5-0.4,0.7l-8.6,5v9.9c0,0.3-0.1,0.5-0.4,0.7L21.7,49.5
	c0,0-0.1,0-0.1,0.1c0,0,0,0-0.1,0c-0.1,0-0.3,0-0.4,0c0,0,0,0-0.1,0c0,0-0.1,0-0.1-0.1l-18-10.4c-0.2-0.1-0.4-0.4-0.4-0.7V7.5
	c0-0.1,0-0.1,0-0.2c0,0,0,0,0-0.1c0,0,0-0.1,0-0.1c0,0,0,0,0.1-0.1c0,0,0-0.1,0.1-0.1c0,0,0,0,0.1-0.1c0,0,0.1,0,0.1-0.1h0l9-5.2
	c0.2-0.1,0.5-0.1,0.8,0l9,5.2h0c0,0,0.1,0,0.1,0.1c0,0,0.1,0,0.1,0.1c0,0,0,0.1,0.1,0.1c0,0,0,0,0.1,0.1c0,0,0,0.1,0,0.1
	c0,0,0,0,0,0.1c0,0.1,0,0.1,0,0.2v19.3l7.5-4.3v-9.9c0-0.1,0-0.1,0-0.2c0,0,0,0,0-0.1c0,0,0-0.1,0-0.1c0,0,0,0,0.1-0.1
	c0,0,0-0.1,0.1-0.1c0,0,0,0,0.1-0.1c0,0,0.1,0,0.1-0.1h0l9-5.2c0.2-0.1,0.5-0.1,0.8,0l9,5.2c0,0,0.1,0,0.1,0.1c0,0,0.1,0,0.1,0.1
	c0,0,0,0.1,0.1,0.1c0,0,0,0,0.1,0.1C49.1,12.3,49.1,12.3,49.1,12.4C49.1,12.4,49.1,12.4,49.1,12.4z M47.6,22.5v-8.6l-3.2,1.8
	l-4.4,2.5v8.6L47.6,22.5L47.6,22.5z M38.6,38v-8.6l-4.3,2.5l-12.3,7v8.7C22.1,47.5,38.6,38,38.6,38z M4,8.8V38l16.5,9.5v-8.7
	L11.9,34l0,0l0,0c0,0-0.1,0-0.1-0.1c0,0-0.1,0-0.1-0.1l0,0c0,0,0-0.1-0.1-0.1c0,0,0,0-0.1-0.1l0,0c0,0,0-0.1,0-0.1c0,0,0-0.1,0-0.1
	v0c0,0,0-0.1,0-0.1c0,0,0-0.1,0-0.1v0V13.1l-4.4-2.5L4,8.8L4,8.8z M12.3,3.2L4.8,7.5l7.5,4.3l7.5-4.3L12.3,3.2L12.3,3.2z M16.2,30.2
	l4.4-2.5V8.8l-3.2,1.8L13,13.1V32C13,32,16.2,30.2,16.2,30.2z M39.4,8.3l-7.5,4.3l7.5,4.3l7.5-4.3C46.9,12.6,39.4,8.3,39.4,8.3z
	 M38.6,18.2l-4.4-2.5l-3.2-1.8v8.6l4.4,2.5l3.2,1.8C38.6,26.8,38.6,18.2,38.6,18.2z M21.3,37.6l11-6.3l5.5-3.1l-7.5-4.3l-8.6,5
	l-7.9,4.5C13.8,33.3,21.3,37.6,21.3,37.6z"/>
</svg>
