<?xml version="1.0" encoding="utf-8"?>
<!-- Generator: Adobe Illustrator 27.5.0, SVG Export Plug-In . SVG Version: 6.00 Build 0)  -->
<svg version="1.1" id="レイヤー_1" xmlns="http://www.w3.org/2000/svg" xmlns:xlink="http://www.w3.org/1999/xlink" x="0px"
	 y="0px" viewBox="0 0 111 111" style="enable-background:new 0 0 111 111;" xml:space="preserve">
<style type="text/css">
	.st0{fill:#333333;}
	.st1{clip-path:url(#SVGID_00000132057017423994861530000000979728711097627567_);}
	.st2{fill:#5FA04E;}
	.st3{fill-rule:evenodd;clip-rule:evenodd;fill:#FFFFFF;}
	.st4{fill-rule:evenodd;clip-rule:evenodd;fill:#5FA04E;}
	.st5{fill:url(#SVGID_00000059306112290631638980000010379603543778702263_);}
	.st6{fill:url(#SVGID_00000180362298631854196470000002937291902305940383_);}
	.st7{fill:url(#SVGID_00000163053172168372879240000010906894268794601644_);}
</style>
<circle class="st0" cx="55.5" cy="55.5" r="55"/>
<g>
	<defs>
		<rect id="SVGID_1_" x="4.5" y="40.4" width="101.8" height="30.3"/>
	</defs>
	<clipPath id="SVGID_00000078032866615348101430000000670050591307289218_">
		<use xlink:href="#SVGID_1_"  style="overflow:visible;"/>
	</clipPath>
	<g style="clip-path:url(#SVGID_00000078032866615348101430000000670050591307289218_);">
		<path class="st2" d="M94.2,70.4c-0.3,0-0.5-0.1-0.7-0.2l-2.3-1.4c-0.4-0.2-0.2-0.3-0.1-0.3c0.5-0.2,0.6-0.2,1.1-0.5
			c0.1,0,0.1,0,0.2,0l1.8,1.1c0.1,0,0.2,0,0.2,0l7-4.1c0.1,0,0.1-0.1,0.1-0.2v-8.1c0-0.1,0-0.2-0.1-0.2l-7-4.1c-0.1,0-0.2,0-0.2,0
			l-7,4.1c-0.1,0-0.1,0.1-0.1,0.2v8.1c0,0.1,0,0.2,0.1,0.2l1.9,1.1c1,0.5,1.7-0.1,1.7-0.7v-8c0-0.1,0.1-0.2,0.2-0.2h0.9
			c0.1,0,0.2,0.1,0.2,0.2v8c0,1.4-0.8,2.2-2.1,2.2c-0.4,0-0.7,0-1.6-0.4l-1.8-1.1c-0.5-0.3-0.7-0.8-0.7-1.3v-8.1
			c0-0.5,0.3-1,0.7-1.3l7-4.1c0.4-0.2,1-0.2,1.5,0l7,4.1c0.5,0.3,0.7,0.8,0.7,1.3v8.1c0,0.5-0.3,1-0.7,1.3l-7,4.1
			C94.7,70.3,94.4,70.4,94.2,70.4z"/>
		<path class="st2" d="M96.3,64.8c-3.1,0-3.7-1.4-3.7-2.6c0-0.1,0.1-0.2,0.2-0.2h0.9c0.1,0,0.2,0.1,0.2,0.2c0.1,0.9,0.5,1.4,2.4,1.4
			c1.5,0,2.1-0.3,2.1-1.1c0-0.5-0.2-0.8-2.5-1c-1.9-0.2-3.1-0.6-3.1-2.2c0-1.4,1.2-2.3,3.2-2.3c2.2,0,3.4,0.8,3.5,2.5
			c0,0.1,0,0.1-0.1,0.2c0,0-0.1,0.1-0.1,0.1h-0.9c-0.1,0-0.2-0.1-0.2-0.2c-0.2-1-0.8-1.3-2.2-1.3c-1.6,0-1.8,0.6-1.8,1
			c0,0.5,0.2,0.7,2.4,1c2.2,0.3,3.2,0.7,3.2,2.2C99.8,63.9,98.6,64.8,96.3,64.8z"/>
		<path class="st2" d="M106.5,56.3c0,0.7-0.6,1.4-1.4,1.4c-0.7,0-1.4-0.6-1.4-1.4c0-0.8,0.6-1.4,1.4-1.4
			C105.8,54.9,106.5,55.5,106.5,56.3z M104,56.3c0,0.6,0.5,1.1,1.1,1.1c0.6,0,1.1-0.5,1.1-1.1c0-0.6-0.5-1.1-1.1-1.1
			C104.5,55.1,104,55.6,104,56.3z M104.6,55.5h0.5c0.2,0,0.5,0,0.5,0.4c0,0.3-0.2,0.3-0.3,0.4c0.2,0,0.2,0.2,0.2,0.4
			c0,0.1,0,0.3,0.1,0.4h-0.3c0-0.1-0.1-0.5-0.1-0.5c0-0.1-0.1-0.1-0.2-0.1h-0.3v0.6h-0.3V55.5z M104.9,56.2h0.2
			c0.2,0,0.2-0.1,0.2-0.2c0-0.2-0.1-0.2-0.2-0.2h-0.2L104.9,56.2L104.9,56.2z"/>
		<path class="st3" d="M21.2,56.4c0-0.3-0.2-0.6-0.5-0.8l-7.4-4.3c-0.1-0.1-0.3-0.1-0.4-0.1c0,0-0.1,0-0.1,0c-0.1,0-0.3,0.1-0.4,0.1
			L5,55.6c-0.3,0.2-0.5,0.5-0.5,0.8l0,11.6c0,0.2,0.1,0.3,0.2,0.4c0.1,0.1,0.3,0.1,0.4,0l4.4-2.5c0.3-0.2,0.5-0.5,0.5-0.8v-5.4
			c0-0.3,0.2-0.6,0.5-0.8l1.9-1.1c0.1-0.1,0.3-0.1,0.5-0.1c0.2,0,0.3,0,0.4,0.1l1.9,1.1c0.3,0.2,0.5,0.5,0.5,0.8V65
			c0,0.3,0.2,0.6,0.5,0.8l4.4,2.5c0.1,0.1,0.3,0.1,0.5,0c0.1-0.1,0.2-0.2,0.2-0.4V56.4z"/>
		<path class="st3" d="M57,40.4c-0.1-0.1-0.3-0.1-0.4,0c-0.1,0.1-0.2,0.2-0.2,0.4v11.5c0,0.1-0.1,0.2-0.2,0.3
			c-0.1,0.1-0.2,0.1-0.3,0L54,51.5c-0.3-0.2-0.6-0.2-0.9,0l-7.4,4.3c-0.3,0.2-0.5,0.5-0.5,0.8v8.6c0,0.3,0.2,0.6,0.5,0.8l7.4,4.3
			c0.3,0.2,0.6,0.2,0.9,0l7.4-4.3c0.3-0.2,0.5-0.5,0.5-0.8V43.7c0-0.3-0.2-0.6-0.5-0.8L57,40.4z M56.3,62.4c0,0.1,0,0.2-0.1,0.2
			l-2.5,1.5c-0.1,0-0.2,0-0.2,0l-2.5-1.5c-0.1,0-0.1-0.1-0.1-0.2v-3c0-0.1,0-0.2,0.1-0.2l2.5-1.5c0.1,0,0.2,0,0.2,0l2.5,1.5
			c0.1,0,0.1,0.1,0.1,0.2V62.4z"/>
		<path class="st3" d="M81.7,59.4c0.3-0.2,0.4-0.5,0.4-0.8v-2.1c0-0.3-0.2-0.6-0.4-0.8l-7.4-4.3c-0.3-0.2-0.6-0.2-0.9,0L66,55.7
			c-0.3,0.2-0.5,0.5-0.5,0.8v8.6c0,0.3,0.2,0.6,0.5,0.8l7.4,4.2c0.3,0.2,0.6,0.2,0.9,0l4.5-2.5c0.1-0.1,0.2-0.2,0.2-0.4
			c0-0.2-0.1-0.3-0.2-0.4l-7.5-4.3c-0.1-0.1-0.2-0.2-0.2-0.4v-2.7c0-0.2,0.1-0.3,0.2-0.4l2.3-1.3c0.1-0.1,0.3-0.1,0.5,0l2.3,1.3
			c0.1,0.1,0.2,0.2,0.2,0.4v2.1c0,0.2,0.1,0.3,0.2,0.4c0.1,0.1,0.3,0.1,0.5,0L81.7,59.4z"/>
		<path class="st4" d="M73.8,59c0.1,0,0.1,0,0.2,0l1.4,0.8c0.1,0,0.1,0.1,0.1,0.2v1.7c0,0.1,0,0.1-0.1,0.2L74,62.6
			c-0.1,0-0.1,0-0.2,0l-1.4-0.8c-0.1,0-0.1-0.1-0.1-0.2v-1.7c0-0.1,0-0.1,0.1-0.2L73.8,59z"/>
		
			<linearGradient id="SVGID_00000140721622071229824040000004493639771175712403_" gradientUnits="userSpaceOnUse" x1="36.2344" y1="57.3622" x2="29.4853" y2="43.6791" gradientTransform="matrix(1 0 0 -1 0 112)">
			<stop  offset="0" style="stop-color:#3F873F"/>
			<stop  offset="0.3296" style="stop-color:#3F8B3D"/>
			<stop  offset="0.6367" style="stop-color:#3E9638"/>
			<stop  offset="0.9341" style="stop-color:#3DA92E"/>
			<stop  offset="1" style="stop-color:#3DAE2B"/>
		</linearGradient>
		<path style="fill:url(#SVGID_00000140721622071229824040000004493639771175712403_);" d="M33.6,51.4c-0.3-0.2-0.6-0.2-0.9,0
			l-7.4,4.3c-0.3,0.2-0.4,0.5-0.4,0.8v8.6c0,0.3,0.2,0.6,0.4,0.8l7.4,4.3c0.3,0.2,0.6,0.2,0.9,0l7.4-4.3c0.3-0.2,0.4-0.5,0.4-0.8
			v-8.6c0-0.3-0.2-0.6-0.4-0.8L33.6,51.4z"/>
		
			<linearGradient id="SVGID_00000016065271025472271560000000824031486577257897_" gradientUnits="userSpaceOnUse" x1="32.0642" y1="50.21" x2="50.8955" y2="64.0376" gradientTransform="matrix(1 0 0 -1 0 112)">
			<stop  offset="0.1376" style="stop-color:#3F873F"/>
			<stop  offset="0.4016" style="stop-color:#52A044"/>
			<stop  offset="0.7129" style="stop-color:#64B749"/>
			<stop  offset="0.9081" style="stop-color:#6ABF4B"/>
		</linearGradient>
		<path style="fill:url(#SVGID_00000016065271025472271560000000824031486577257897_);" d="M41.1,55.7l-7.4-4.3
			c-0.1,0-0.2-0.1-0.2-0.1l-8.3,14.3c0.1,0.1,0.2,0.2,0.2,0.2l7.4,4.3c0.2,0.1,0.5,0.2,0.7,0.1l7.8-14.4
			C41.2,55.8,41.1,55.8,41.1,55.7z"/>
		
			<linearGradient id="SVGID_00000083781226174633347760000003222342670285533331_" gradientUnits="userSpaceOnUse" x1="24.6485" y1="51.2019" x2="41.7494" y2="51.2019" gradientTransform="matrix(1 0 0 -1 0 112)">
			<stop  offset="9.191650e-02" style="stop-color:#6ABF4B"/>
			<stop  offset="0.2871" style="stop-color:#64B749"/>
			<stop  offset="0.5984" style="stop-color:#52A044"/>
			<stop  offset="0.8624" style="stop-color:#3F873F"/>
		</linearGradient>
		<path style="fill:url(#SVGID_00000083781226174633347760000003222342670285533331_);" d="M41.1,65.9c0.2-0.1,0.4-0.3,0.4-0.6
			l-8.1-14c-0.2,0-0.4,0-0.6,0.1l-7.4,4.3l8,14.6c0.1,0,0.2-0.1,0.3-0.1L41.1,65.9z"/>
	</g>
</g>
</svg>
