<?xml version="1.0" encoding="utf-8"?>
<!-- Generator: Adobe Illustrator 27.5.0, SVG Export Plug-In . SVG Version: 6.00 Build 0)  -->
<svg version="1.1"
	 id="svg3430" xmlns:cc="http://creativecommons.org/ns#" xmlns:rdf="http://www.w3.org/1999/02/22-rdf-syntax-ns#" xmlns:dc="http://purl.org/dc/elements/1.1/" xmlns:svg="http://www.w3.org/2000/svg"
	 xmlns="http://www.w3.org/2000/svg" xmlns:xlink="http://www.w3.org/1999/xlink" x="0px" y="0px" viewBox="0 0 711.2 711.2"
	 style="enable-background:new 0 0 711.2 711.2;" xml:space="preserve">
<style type="text/css">
	.st0{clip-path:url(#SVGID_00000182498364953953617740000012688603877946550959_);}
	.st1{fill:url(#path3462_00000106134714617667164740000014604341366195742370_);}
	.st2{clip-path:url(#SVGID_00000013903304085324365320000011837148133356583092_);}
	.st3{fill:#777BB3;}
	.st4{clip-path:url(#SVGID_00000018224490906445363300000004241209485979488189_);}
	.st5{fill:#FFFFFF;}
</style>
<g id="g3438" transform="matrix(1.25,0,0,-1.25,-4.4,394.29875)">
	<g id="g3440">
		<g>
			<defs>
				<path id="SVGID_1_" d="M11.5,31c0-80.3,123.8-145.4,276.5-145.4l0,0c152.7,0,276.5,65.1,276.5,145.4l0,0
					c0,80.3-123.8,145.4-276.5,145.4l0,0C135.3,176.4,11.5,111.3,11.5,31"/>
			</defs>
			<clipPath id="SVGID_00000162318314511953372130000014053732852727957404_">
				<use xlink:href="#SVGID_1_"  style="overflow:visible;"/>
			</clipPath>
			<g id="g3442" style="clip-path:url(#SVGID_00000162318314511953372130000014053732852727957404_);">
				<g id="g3448">
					<g id="g3450">
						
							<radialGradient id="path3462_00000005231391641336229570000012453160046817649812_" cx="167.9568" cy="-129.9901" r="1" gradientTransform="matrix(453.8224 0 0 -453.8224 -76045.0547 -58867.1719)" gradientUnits="userSpaceOnUse">
							<stop  offset="0" style="stop-color:#AEB2D5"/>
							<stop  offset="0.3" style="stop-color:#AEB2D5"/>
							<stop  offset="0.75" style="stop-color:#484C89"/>
							<stop  offset="1" style="stop-color:#484C89"/>
						</radialGradient>
						<path id="path3462" style="fill:url(#path3462_00000005231391641336229570000012453160046817649812_);" d="M11.5,31
							c0-80.3,123.8-145.4,276.5-145.4l0,0c152.7,0,276.5,65.1,276.5,145.4l0,0c0,80.3-123.8,145.4-276.5,145.4l0,0
							C135.3,176.4,11.5,111.3,11.5,31"/>
					</g>
				</g>
			</g>
		</g>
	</g>
	<g id="g3464">
		<g>
			<defs>
				<rect id="SVGID_00000106145338408679895580000010867657447336223396_" x="-72" y="-171.5" width="720" height="405"/>
			</defs>
			<clipPath id="SVGID_00000016067628990680432320000016552987490225031337_">
				<use xlink:href="#SVGID_00000106145338408679895580000010867657447336223396_"  style="overflow:visible;"/>
			</clipPath>
			<g id="g3466" style="clip-path:url(#SVGID_00000016067628990680432320000016552987490225031337_);">
				<g id="g3472" transform="translate(288,27.3594)">
					<path id="path3474" class="st3" d="M0-131c146.7,0,265.7,60.3,265.7,134.6c0,74.4-119,134.6-265.7,134.6S-265.7,78-265.7,3.6
						C-265.7-70.8-146.7-131,0-131"/>
				</g>
			</g>
		</g>
	</g>
	<g id="g3476">
		<g>
			<defs>
				<rect id="SVGID_00000145770953829011162640000008023194673344085670_" x="-72" y="-171.5" width="720" height="405"/>
			</defs>
			<clipPath id="SVGID_00000137126921253443785660000008904447782801846165_">
				<use xlink:href="#SVGID_00000145770953829011162640000008023194673344085670_"  style="overflow:visible;"/>
			</clipPath>
			<g id="g3478" style="clip-path:url(#SVGID_00000137126921253443785660000008904447782801846165_);">
				<g id="g3484" transform="translate(161.7344,145.3066)">
					<path id="path3486" d="M0-131c12.1,0,21.1,2.2,26.8,6.6c5.6,4.3,9.5,11.9,11.6,22.4c1.9,9.8,1.2,16.7-2.2,20.3
						C32.8-78,25.4-76,14.3-76H-5l-10.7-55H0z M-63.1-198.8c-0.9,0-1.7,0.4-2.3,1.1c-0.6,0.7-0.8,1.6-0.6,2.5l28.3,145.8
						c0.3,1.4,1.5,2.4,2.9,2.4h61.1c19.2,0,33.5-5.2,42.4-15.5c9-10.3,11.8-24.8,8.3-42.9c-1.4-7.4-3.9-14.3-7.3-20.4
						c-3.4-6.2-8-11.9-13.5-16.9c-6.6-6.2-14.1-10.7-22.2-13.3c-8-2.6-18.3-3.9-30.5-3.9h-24.7l-7.1-36.3c-0.3-1.4-1.5-2.4-2.9-2.4
						H-63.1z"/>
				</g>
				<g id="g3488" transform="translate(159.2236,197.3071)">
					<path id="path3490" class="st5" d="M0-131h16.8c13.4,0,18.1-2.9,19.7-4.7c2.6-2.9,3.1-9.1,1.4-17.8
						c-1.9-9.8-5.4-16.7-10.5-20.5c-5.2-4-13.6-6-24.9-6h-12L0-131z M28.8-96h-61.1c-2.9,0-5.3-2-5.9-4.9l-28.3-145.8
						c-0.3-1.8,0.1-3.6,1.3-5c1.1-1.4,2.8-2.2,4.6-2.2h31.7c2.9,0,5.3,2,5.9,4.9l6.6,33.9H5.9c12.6,0,23.2,1.4,31.5,4.1
						c8.5,2.8,16.4,7.5,23.4,14c5.8,5.3,10.5,11.2,14.1,17.7c3.6,6.4,6.2,13.6,7.7,21.3c3.7,19.1,0.7,34.4-9,45.5
						C64-101.6,48.9-96,28.8-96 M-16.8-186H2.5c12.8,0,22.3,2.4,28.6,7.2c6.3,4.8,10.5,12.9,12.7,24.2c2.1,10.8,1.1,18.5-2.9,22.9
						c-4,4.5-12.1,6.7-24.1,6.7H-4.9L-16.8-186 M28.8-102c18.4,0,31.8-4.8,40.2-14.5c8.4-9.6,11-23.1,7.6-40.4
						c-1.4-7.1-3.7-13.6-7-19.5c-3.3-5.9-7.6-11.3-12.9-16.2c-6.3-5.9-13.4-10.2-21.1-12.7c-7.8-2.5-17.6-3.8-29.6-3.8h-27.2
						l-7.5-38.8h-31.8L-32.2-102H28.8"/>
				</g>
				<g id="g3492" transform="translate(311.583,116.3066)">
					<path id="path3494" d="M0-131c-0.9,0-1.7,0.4-2.3,1.1c-0.6,0.7-0.8,1.6-0.6,2.5L9.6-63c1.2,6.1,0.9,10.5-0.8,12.4
						c-1.1,1.1-4.2,3-13.6,3h-22.7l-15.8-81.1c-0.3-1.4-1.5-2.4-2.9-2.4h-31.5c-0.9,0-1.7,0.4-2.3,1.1c-0.6,0.7-0.8,1.6-0.6,2.5
						l28.3,145.8c0.3,1.4,1.5,2.4,2.9,2.4h31.5c0.9,0,1.7-0.4,2.3-1.1c0.6-0.7,0.8-1.6,0.6-2.5L-21.8-18H2.6
						c18.6,0,31.2-3.3,38.6-10C48.7-35,51-46,48.1-60.8l-13.2-67.8c-0.3-1.4-1.5-2.4-2.9-2.4H0z"/>
				</g>
				<g id="g3496" transform="translate(293.6611,271.0571)">
					<path id="path3498" class="st5" d="M0-131h-31.5c-2.9,0-5.3-2-5.9-4.9l-28.3-145.8c-0.3-1.8,0.1-3.6,1.3-5
						c1.1-1.4,2.8-2.2,4.6-2.2h31.5c2.9,0,5.3,2,5.9,4.9l15.3,78.6h20.2c9.4,0,11.3-2,11.4-2.1c0.6-0.6,1.3-3.4,0.1-9.8L12-281.6
						c-0.3-1.8,0.1-3.6,1.3-5s2.8-2.2,4.6-2.2h32c2.9,0,5.3,2,5.9,4.9L69-216.1c3.1,15.9,0.4,27.9-7.9,35.5
						c-7.9,7.3-21.2,10.8-40.6,10.8H-0.3l6.1,31.6c0.3,1.8-0.1,3.6-1.3,5C3.5-131.8,1.8-131,0-131 M0-137l-7.5-38.8h28.1
						c17.7,0,29.8-3.1,36.5-9.2c6.7-6.2,8.7-16.1,6-29.9l-13.2-67.8h-32l12.5,64.5c1.4,7.3,0.9,12.3-1.6,15c-2.5,2.7-7.7,4-15.8,4
						h-25.2l-16.2-83.5h-31.5L-31.5-137H0"/>
				</g>
				<g id="g3500" transform="translate(409.5498,145.3066)">
					<path id="path3502" d="M0-131c12.1,0,21.1,2.2,26.8,6.6c5.6,4.3,9.5,11.9,11.6,22.4c1.9,9.8,1.2,16.7-2.2,20.3
						C32.8-78,25.4-76,14.3-76H-5l-10.7-55H0z M-63.1-198.8c-0.9,0-1.7,0.4-2.3,1.1c-0.6,0.7-0.8,1.6-0.6,2.5l28.3,145.8
						c0.3,1.4,1.5,2.4,2.9,2.4h61.1c19.2,0,33.5-5.2,42.4-15.5c9-10.3,11.8-24.8,8.3-42.9c-1.4-7.4-3.9-14.3-7.3-20.4
						c-3.4-6.2-8-11.9-13.5-16.9c-6.6-6.2-14.1-10.7-22.2-13.3c-8-2.6-18.3-3.9-30.5-3.9h-24.7l-7.1-36.3c-0.3-1.4-1.5-2.4-2.9-2.4
						H-63.1z"/>
				</g>
				<g id="g3504" transform="translate(407.0391,197.3071)">
					<path id="path3506" class="st5" d="M0-131h16.8c13.4,0,18.1-2.9,19.7-4.7c2.6-2.9,3.1-9.1,1.4-17.8
						c-1.9-9.8-5.4-16.7-10.5-20.5c-5.2-4-13.6-6-24.9-6h-12L0-131z M28.8-96h-61.1c-2.9,0-5.3-2-5.9-4.9l-28.3-145.8
						c-0.3-1.8,0.1-3.6,1.3-5c1.1-1.4,2.8-2.2,4.6-2.2h31.7c2.9,0,5.3,2,5.9,4.9l6.6,33.9H5.9c12.6,0,23.2,1.4,31.5,4.1
						c8.5,2.8,16.4,7.5,23.4,14c5.8,5.3,10.5,11.2,14.1,17.7c3.6,6.4,6.2,13.6,7.7,21.3c3.7,19.1,0.7,34.4-9,45.5
						C64-101.6,48.9-96,28.8-96 M-16.8-186H2.5c12.8,0,22.3,2.4,28.6,7.2c6.3,4.8,10.5,12.9,12.7,24.2c2.1,10.8,1.1,18.5-2.9,22.9
						c-4,4.5-12.1,6.7-24.1,6.7H-4.9L-16.8-186 M28.8-102c18.4,0,31.8-4.8,40.2-14.5c8.4-9.6,11-23.1,7.6-40.4
						c-1.4-7.1-3.7-13.6-7-19.5c-3.3-5.9-7.6-11.3-12.9-16.2c-6.3-5.9-13.4-10.2-21.1-12.7c-7.8-2.5-17.6-3.8-29.6-3.8h-27.2
						l-7.5-38.8h-31.8L-32.2-102H28.8"/>
				</g>
			</g>
		</g>
	</g>
</g>
</svg>
