<?xml version="1.0" encoding="utf-8"?>
<!-- Generator: Adobe Illustrator 27.5.0, SVG Export Plug-In . SVG Version: 6.00 Build 0)  -->
<svg version="1.1" id="レイヤー_1" xmlns="http://www.w3.org/2000/svg" xmlns:xlink="http://www.w3.org/1999/xlink" x="0px"
	 y="0px" viewBox="0 0 28 28" style="enable-background:new 0 0 28 28;" xml:space="preserve">
<style type="text/css">
	.st0{fill-rule:evenodd;clip-rule:evenodd;fill:#2D3748;}
</style>
<path class="st0" d="M3.9,18.7c-0.3-0.4-0.3-0.9,0-1.3l9.3-15.2c0.6-0.8,1.8-0.7,2.2,0.1l8.6,18.6c0.3,0.6-0.1,1.5-0.7,1.8l-13.4,4
	c-0.6,0.1-1.1-0.1-1.4-0.6L3.9,18.7z M14.4,6.6c0.1-0.5,0.7-0.6,0.9-0.1l5.9,13.7c0.1,0.3,0,0.6-0.3,0.6l-9.1,2.8
	c-0.4,0.1-0.6-0.2-0.6-0.6L14.4,6.6z"/>
</svg>
