<?xml version="1.0" encoding="utf-8"?>
<!-- Generator: Adobe Illustrator 27.5.0, SVG Export Plug-In . SVG Version: 6.00 Build 0)  -->
<svg version="1.1" id="レイヤー_1" xmlns="http://www.w3.org/2000/svg" xmlns:xlink="http://www.w3.org/1999/xlink" x="0px"
	 y="0px" viewBox="0 0 319 319" style="enable-background:new 0 0 319 319;" xml:space="preserve">
<style type="text/css">
	.st0{fill:#FF4785;}
	.st1{filter:url(#Adobe_OpacityMaskFilter);}
	.st2{fill:#FFFFFF;}
	.st3{mask:url(#mask-2_00000042709682610885533220000008391012422608129724_);fill:#FFFFFF;}
</style>
<g>
	<g>
		<path id="path-1_00000103265919214518841950000005959862263112161204_" class="st0" d="M55.6,277.2L46.9,46.1
			c-0.3-7.6,5.6-14.1,13.2-14.6l196.6-12.3c7.8-0.5,14.4,5.4,14.9,13.2c0,0.3,0,0.6,0,0.9v251.8c0,7.8-6.3,14.1-14.1,14.1
			c-0.2,0-0.4,0-0.6,0L69,290.7C61.7,290.4,55.8,284.5,55.6,277.2L55.6,277.2z"/>
	</g>
	<defs>
		<filter id="Adobe_OpacityMaskFilter" filterUnits="userSpaceOnUse" x="104.8" y="19.2" width="137.6" height="226.9">
			<feColorMatrix  type="matrix" values="1 0 0 0 0  0 1 0 0 0  0 0 1 0 0  0 0 0 1 0"/>
		</filter>
	</defs>
	
		<mask maskUnits="userSpaceOnUse" x="104.8" y="19.2" width="137.6" height="226.9" id="mask-2_00000042709682610885533220000008391012422608129724_">
		<g class="st1">
			<path id="path-1_00000172421400667061430240000007602500701610683543_" class="st2" d="M55.6,277.2L46.9,46.1
				c-0.3-7.6,5.6-14.1,13.2-14.6l196.6-12.3c7.8-0.5,14.4,5.4,14.9,13.2c0,0.3,0,0.6,0,0.9v251.8c0,7.8-6.3,14.1-14.1,14.1
				c-0.2,0-0.4,0-0.6,0L69,290.7C61.7,290.4,55.8,284.5,55.6,277.2L55.6,277.2z"/>
		</g>
	</mask>
	<path class="st3" d="M212.8,53.6l1.3-32.3l27-2.1l1.2,33.3c0,1.2-0.9,2.1-2,2.2c-0.5,0-1-0.1-1.4-0.4L228.5,46l-12.3,9.4
		c-0.9,0.7-2.2,0.5-2.9-0.4C213,54.5,212.8,54.1,212.8,53.6z M178.3,124.7c0,5.5,36.9,2.9,41.8-1c0-37.3-20-56.9-56.7-56.9
		s-57.2,19.9-57.2,49.8c0,52,70.2,53,70.2,81.4c0,8-3.9,12.7-12.5,12.7c-11.2,0-15.6-5.7-15.1-25.1c0-4.2-42.6-5.5-43.9,0
		c-3.3,47,26,60.6,59.5,60.6c32.5,0,58-17.3,58-48.7c0-55.7-71.2-54.2-71.2-81.9c0-11.2,8.3-12.7,13.3-12.7
		C169.7,102.9,179.1,103.8,178.3,124.7z"/>
</g>
</svg>
