<?xml version="1.0" encoding="utf-8"?>
<!-- Generator: Adobe Illustrator 27.5.0, SVG Export Plug-In . SVG Version: 6.00 Build 0)  -->
<svg version="1.1" id="レイヤー_1" xmlns="http://www.w3.org/2000/svg" xmlns:xlink="http://www.w3.org/1999/xlink" x="0px"
	 y="0px" viewBox="0 0 120 120" style="enable-background:new 0 0 120 120;" xml:space="preserve">
<style type="text/css">
	.st0{fill:url(#SVGID_1_);}
	.st1{fill:url(#SVGID_00000181791539468638551490000003560733735879920027_);fill-opacity:0.2;}
	.st2{fill:#3ECF8E;}
</style>
<linearGradient id="SVGID_1_" gradientUnits="userSpaceOnUse" x1="55.8405" y1="53.8629" x2="96.0302" y2="37.0074" gradientTransform="matrix(1 0 0 -1 0 121)">
	<stop  offset="0" style="stop-color:#249361"/>
	<stop  offset="1" style="stop-color:#3ECF8E"/>
</linearGradient>
<path class="st0" d="M69.2,113.8c-2.9,3.6-8.7,1.6-8.7-3l-1-67.3h45.2c8.2,0,12.8,9.5,7.7,15.9L69.2,113.8z"/>
<linearGradient id="SVGID_00000172441877050703156230000014191209546653681321_" gradientUnits="userSpaceOnUse" x1="57.7662" y1="95.4802" x2="76.0948" y2="60.9776" gradientTransform="matrix(1 0 0 -1 0 121)">
	<stop  offset="0" style="stop-color:#000000"/>
	<stop  offset="1" style="stop-color:#000000;stop-opacity:0"/>
</linearGradient>
<path style="fill:url(#SVGID_00000172441877050703156230000014191209546653681321_);fill-opacity:0.2;" d="M69.2,113.8
	c-2.9,3.6-8.7,1.6-8.7-3l-1-67.3h45.2c8.2,0,12.8,9.5,7.7,15.9L69.2,113.8z"/>
<path class="st2" d="M50.8,5.6c2.9-3.6,8.7-1.6,8.7,3L60,75.8H15.3c-8.2,0-12.8-9.5-7.7-15.9L50.8,5.6z"/>
</svg>
