<?xml version="1.0" encoding="utf-8"?>
<!-- Generator: Adobe Illustrator 27.5.0, SVG Export Plug-In . SVG Version: 6.00 Build 0)  -->
<svg version="1.1" id="Layer_1" xmlns="http://www.w3.org/2000/svg" xmlns:xlink="http://www.w3.org/1999/xlink" x="0px" y="0px"
	 viewBox="0 0 118 118" style="enable-background:new 0 0 118 118;" xml:space="preserve">
<style type="text/css">
	.st0{fill:#FF3E00;}
	.st1{fill:#FFFFFF;}
</style>
<path class="st0" d="M95.2,22.2C86,8.9,67.6,5,54.4,13.4L31.1,28.3c-6.4,4-10.8,10.5-12,17.9c-1.1,6.2-0.2,12.5,2.8,18
	c-2,3.1-3.4,6.4-4,10c-1.4,7.5,0.4,15.3,4.8,21.5c9.3,13.3,27.6,17.2,40.8,8.8l23.3-14.8c6.4-4,10.8-10.5,12-17.9
	c1.1-6.2,0.2-12.5-2.8-18c2-3.1,3.4-6.4,4-10C101.5,36.2,99.7,28.4,95.2,22.2"/>
<path class="st1" d="M52.1,97c-7.5,1.9-15.4-1-19.8-7.4c-2.7-3.7-3.7-8.4-3-13c0.2-0.8,0.3-1.4,0.5-2.2l0.4-1.4l1.2,0.8
	c2.8,2,5.8,3.6,9.2,4.6l0.8,0.3l-0.1,0.8c-0.1,1.2,0.3,2.5,0.9,3.5c1.4,1.9,3.7,2.9,6,2.3c0.5-0.2,1-0.3,1.4-0.6L72.9,70
	c1.2-0.8,1.9-1.9,2.2-3.2c0.3-1.4-0.1-2.8-0.8-3.9c-1.4-1.9-3.7-2.8-6-2.2c-0.5,0.2-1,0.3-1.4,0.6L57.9,67c-1.4,0.9-3.1,1.6-4.7,2
	c-7.5,1.9-15.4-1-19.8-7.4c-2.6-3.7-3.7-8.4-2.9-13c0.8-4.4,3.5-8.4,7.3-10.8l23.3-14.8c1.4-0.9,3.1-1.6,4.7-2.1
	c7.5-1.9,15.4,1,19.8,7.4c2.7,3.7,3.7,8.4,3,13c-0.2,0.8-0.3,1.4-0.6,2.2l-0.4,1.4L86.4,44c-2.8-2-5.8-3.6-9.2-4.6l-0.8-0.3l0.1-0.8
	c0.1-1.2-0.3-2.5-0.9-3.5c-1.4-1.9-3.7-2.8-6-2.2c-0.5,0.2-1,0.3-1.4,0.6L44.9,48.1c-1.2,0.8-1.9,1.9-2.2,3.2s0.1,2.8,0.8,3.9
	c1.4,1.9,3.7,2.8,6,2.2c0.5-0.2,1-0.3,1.4-0.6l8.9-5.7c1.4-0.9,3.1-1.6,4.7-2.1c7.5-1.9,15.4,1,19.8,7.4c2.7,3.7,3.7,8.4,3,13
	c-0.8,4.4-3.5,8.4-7.3,10.8L56.8,94.9C55.4,95.9,53.8,96.5,52.1,97"/>
</svg>
