<?xml version="1.0" encoding="utf-8"?>
<!-- Generator: Adobe Illustrator 27.5.0, SVG Export Plug-In . SVG Version: 6.00 Build 0)  -->
<svg version="1.1" id="レイヤー_1" xmlns="http://www.w3.org/2000/svg" xmlns:xlink="http://www.w3.org/1999/xlink" x="0px"
	 y="0px" viewBox="0 0 550 550" style="enable-background:new 0 0 550 550;" xml:space="preserve">
<style type="text/css">
	.st0{fill:#398CCB;}
	.st1{fill-rule:evenodd;clip-rule:evenodd;fill:#FFFFFF;}
</style>
<path class="st0" d="M169,19h212c82.8,0,150,67.2,150,150v212c0,82.8-67.2,150-150,150H169c-82.8,0-150-67.2-150-150V169
	C19,86.2,86.2,19,169,19z"/>
<path class="st1" d="M274.4,94l71.1,41v22.5l86,49.7v85l23.1,13.3v82.1l-71,41l-31.5-18.2l-76.7,44.3l-76.2-44l-31.1,18l-71-41.1
	v-82l22.2-12.8v-85.5l84.2-48.6l0,0V135L274.4,94z M345.5,178.9V217l-71,41l-71-41v-37.1l0,0l-65.7,38v64.2l30.4-17.5l71,41v82
	L217.6,400l57.8,33.4l58.2-33.6l-21-12.2v-82l71-41l29.5,17v-63.7L345.5,178.9z M331,377v-50.1l43.3,25V402L331,377z M436.2,326.8
	l-43.3,25V402l43.3-25.1V326.8z M115.5,376.9v-50.1l43.3,25v50.1L115.5,376.9z M220.7,326.8l-43.3,25v50.1l43.3-25V326.8z
	 M340.3,310.9l43.3-25l43.3,25l-43.3,25L340.3,310.9z M168.1,285.8l-43.3,25.1l43.3,25l43.3-25L168.1,285.8z M221.9,206.4v-50.1
	l43.3,25v50L221.9,206.4z M327,156.3l-43.3,25v50l43.3-25V156.3z M231.2,140.3l43.3-25l43.3,25l-43.3,25L231.2,140.3z"/>
</svg>
