<?xml version="1.0" encoding="utf-8"?>
<!-- Generator: Adobe Illustrator 27.5.0, SVG Export Plug-In . SVG Version: 6.00 Build 0)  -->
<svg version="1.1" id="レイヤー_1" xmlns="http://www.w3.org/2000/svg" xmlns:xlink="http://www.w3.org/1999/xlink" x="0px"
	 y="0px" viewBox="0 0 512 512" style="enable-background:new 0 0 512 512;" xml:space="preserve">
<style type="text/css">
	.st0{fill:#3178C6;}
	.st1{fill-rule:evenodd;clip-rule:evenodd;fill:#FFFFFF;}
</style>
<path class="st0" d="M62.9,16h386.2C475,16,496,37,496,62.9v386.2c0,25.9-21,46.9-46.9,46.9H62.9C37,496,16,475,16,449.1V62.9
	C16,37,37,16,62.9,16z"/>
<path class="st0" d="M62.9,16h386.2C475,16,496,37,496,62.9v386.2c0,25.9-21,46.9-46.9,46.9H62.9C37,496,16,475,16,449.1V62.9
	C16,37,37,16,62.9,16z"/>
<path class="st1" d="M313.1,398v46.9c7.6,3.9,16.7,6.8,27.1,8.8s21.4,2.9,32.9,2.9c11.2,0,21.9-1.1,32.1-3.2
	c10.1-2.2,19-5.7,26.6-10.6c7.6-4.9,13.7-11.4,18.1-19.4s6.7-17.8,6.7-29.6c0-8.5-1.3-16-3.8-22.4c-2.5-6.4-6.2-12.1-11-17.1
	c-4.8-5-10.5-9.5-17.2-13.4s-14.3-7.7-22.7-11.2c-6.2-2.5-11.7-5-16.6-7.4c-4.9-2.4-9-4.8-12.5-7.3c-3.4-2.5-6.1-5.1-7.9-7.9
	c-1.9-2.8-2.8-5.9-2.8-9.5c0-3.2,0.8-6.1,2.5-8.7c1.7-2.6,4-4.8,7-6.7c3-1.9,6.7-3.3,11.2-4.3c4.4-1,9.3-1.5,14.7-1.5
	c3.9,0,8,0.3,12.4,0.9c4.4,0.6,8.7,1.5,13.1,2.7c4.4,1.2,8.7,2.8,12.8,4.6c4.2,1.9,8,4,11.5,6.5v-43.9c-7.1-2.7-14.9-4.8-23.4-6.1
	c-8.5-1.3-18.2-2-29.1-2c-11.2,0-21.7,1.2-31.7,3.6s-18.8,6.1-26.3,11.2c-7.6,5.1-13.6,11.6-18,19.4c-4.4,7.9-6.6,17.3-6.6,28.2
	c0,14,4,25.9,12.1,35.8c8.1,9.9,20.3,18.2,36.8,25.1c6.5,2.6,12.5,5.2,18,7.8c5.6,2.5,10.4,5.2,14.5,7.9c4.1,2.7,7.3,5.7,9.6,8.9
	c2.3,3.2,3.5,6.9,3.5,11c0,3-0.7,5.8-2.2,8.4c-1.5,2.6-3.7,4.8-6.7,6.7c-3,1.9-6.7,3.4-11.2,4.5c-4.5,1.1-9.7,1.6-15.6,1.6
	c-10.2,0-20.2-1.8-30.2-5.4C330.9,410.5,321.6,405.1,313.1,398L313.1,398z M234.2,282.3h60.2v-38.5H126.6v38.5h59.9v171.5h47.7
	V282.3z"/>
</svg>
