<?xml version="1.0" encoding="utf-8"?>
<!-- Generator: Adobe Illustrator 27.5.0, SVG Export Plug-In . SVG Version: 6.00 Build 0)  -->
<svg version="1.1" id="レイヤー_1" xmlns="http://www.w3.org/2000/svg" xmlns:xlink="http://www.w3.org/1999/xlink" x="0px"
	 y="0px" viewBox="0 0 410 410" style="enable-background:new 0 0 410 410;" xml:space="preserve">
<style type="text/css">
	.st0{fill:url(#SVGID_1_);}
	.st1{fill:url(#SVGID_00000115515850264450343600000010696763842669473164_);}
</style>
<linearGradient id="SVGID_1_" gradientUnits="userSpaceOnUse" x1="112.5974" y1="434.8884" x2="328.6426" y2="141.4817" gradientTransform="matrix(1 0 0 -1 0 410)">
	<stop  offset="0" style="stop-color:#41D1FF"/>
	<stop  offset="1" style="stop-color:#BD34FE"/>
</linearGradient>
<path class="st0" d="M388.6,70.3L215,380.7c-3.6,6.4-12.8,6.4-16.4,0.1L21.6,70.4c-4-6.9,2-15.4,9.9-14l173.8,31.1
	c1.1,0.2,2.2,0.2,3.4,0l170.1-31C386.6,55,392.5,63.4,388.6,70.3z"/>
<linearGradient id="SVGID_00000138559812060762001680000005766660251723110293_" gradientUnits="userSpaceOnUse" x1="214.4741" y1="390.3076" x2="253.5556" y2="122.2125" gradientTransform="matrix(1 0 0 -1 0 410)">
	<stop  offset="0" style="stop-color:#FFEA83"/>
	<stop  offset="8.333330e-02" style="stop-color:#FFDD35"/>
	<stop  offset="1" style="stop-color:#FFA800"/>
</linearGradient>
<path style="fill:url(#SVGID_00000138559812060762001680000005766660251723110293_);" d="M288,15.7L159.5,40.8
	c-2.1,0.4-3.7,2.2-3.8,4.4l-7.9,133.5c-0.2,3.1,2.7,5.6,5.8,4.9l35.8-8.3c3.3-0.8,6.4,2.2,5.7,5.5l-10.6,52c-0.7,3.5,2.6,6.5,6,5.5
	l22.1-6.7c3.4-1,6.7,2,6,5.5l-16.9,81.7c-1.1,5.1,5.7,7.9,8.6,3.5l1.9-2.9l104.7-208.9c1.8-3.5-1.3-7.5-5.1-6.7l-36.8,7.1
	c-3.5,0.7-6.4-2.6-5.4-5.9l24-83.3C294.4,18.2,291.5,15,288,15.7z"/>
</svg>
