<?xml version="1.0" encoding="utf-8"?>
<!-- Generator: Adobe Illustrator 27.5.0, SVG Export Plug-In . SVG Version: 6.00 Build 0)  -->
<svg version="1.1" id="レイヤー_1" xmlns="http://www.w3.org/2000/svg" xmlns:xlink="http://www.w3.org/1999/xlink" x="0px"
	 y="0px" viewBox="0 0 875.7 875.7" style="enable-background:new 0 0 875.7 875.7;" xml:space="preserve">
<style type="text/css">
	.st0{fill:#FFFFFF;}
	.st1{fill:#8ED6FB;}
	.st2{fill:#1C78C0;}
</style>
<path class="st0" d="M437.9,0l387,218.9v437.9l-387,218.9l-387-218.9V218.9L437.9,0z"/>
<path class="st1" d="M755.8,641.7L450.7,814.3V679.9l190.1-104.6L755.8,641.7z M776.7,622.8V261.9l-111.6,64.5v232L776.7,622.8z
	 M118.8,641.7l305.1,172.6V679.9L233.7,575.3L118.8,641.7z M97.9,622.8V261.9l111.6,64.5v232L97.9,622.8z M111,238.5l312.9-177
	v129.9L223.4,301.7l-1.6,0.9L111,238.5z M763.5,238.5l-312.9-177v129.9l200.5,110.2l1.6,0.9L763.5,238.5z"/>
<path class="st2" d="M423.9,649.3L236.2,546.1V341.8l187.6,108.3V649.3z M450.6,649.3l187.6-103.1V341.8L450.7,450.1L450.6,649.3z
	 M248.9,318.2l188.3-103.5l188.3,103.5L437.3,426.9L248.9,318.2z"/>
</svg>
