<?xml version="1.0" encoding="utf-8"?>
<!-- Generator: Adobe Illustrator 27.5.0, SVG Export Plug-In . SVG Version: 6.00 Build 0)  -->
<svg version="1.1" id="レイヤー_1" xmlns="http://www.w3.org/2000/svg" xmlns:xlink="http://www.w3.org/1999/xlink" x="0px"
	 y="0px" viewBox="0 0 36 36" style="enable-background:new 0 0 36 36;" xml:space="preserve">
<path d="M5,18c0,5.2,3,9.6,7.4,11.7l-6.2-17C5.4,14.4,5,16.2,5,18z M18,31c1.5,0,3-0.2,4.4-0.7l-0.1-0.1l-4-11.1l-3.9,11.3
	C15.5,30.8,16.7,31,18,31z M19.7,11.9l4.7,14l1.3-4.4c0.6-1.8,1-3.1,1-4.2c0-1.6-0.6-2.8-1-3.6c-0.7-1-1.3-2-1.3-3
	c0-1.2,0.9-2.3,2.2-2.3h0.1C24.3,6.2,21.2,5,18,5c-4.4,0-8.4,2.2-10.8,5.9H8c1.4,0,3.5-0.1,3.5-0.1c0.7,0,0.8,1,0.1,1
	c0,0-0.7,0.1-1.5,0.1L14.8,26l2.9-8.5l-2.1-5.5c-0.5,0-0.9-0.1-1.4-0.1c-0.7,0-0.6-1.2,0.1-1c0,0,2.2,0.1,3.5,0.1
	c1.4,0,3.5-0.1,3.5-0.1c0.7,0,0.8,1,0.1,1C21.2,11.8,20.5,11.9,19.7,11.9z M24.6,29.3C28.6,27,31,22.7,31,18c0-2.3-0.6-4.4-1.6-6.2
	c0.2,2.1-0.1,4.2-0.9,6L24.6,29.3z M18,33C9.7,33,3,26.3,3,18S9.7,3,18,3s15,6.7,15,15S26.3,33,18,33z"/>
</svg>
