<?xml version="1.0" encoding="utf-8"?>
<!-- Generator: Adobe Illustrator 27.5.0, SVG Export Plug-In . SVG Version: 6.00 Build 0)  -->
<svg version="1.1" id="レイヤー_1" xmlns:serif="http://www.serif.com/"
	 xmlns="http://www.w3.org/2000/svg" xmlns:xlink="http://www.w3.org/1999/xlink" x="0px" y="0px" viewBox="0 0 300 300"
	 style="enable-background:new 0 0 300 300;" xml:space="preserve">
<style type="text/css">
	.st0{fill-rule:evenodd;clip-rule:evenodd;fill:#274D82;}
	.st1{fill-rule:evenodd;clip-rule:evenodd;fill:#3068B7;}
</style>
<g transform="matrix(0.999568,0,0,0.999479,0,0)">
	
		<image style="overflow:visible;enable-background:new    ;" width="868" height="670" id="_Image1" xlink:href="A645B4F8F74FD70B.png"  transform="matrix(0.2777 0 0 0.2776 31.2248 63.6057)">
	</image>
</g>
<g transform="matrix(0.116243,0,0,0.473619,-23.7923,-3587.35)">
	<rect x="1004.3" y="7962.7" class="st0" width="972.4" height="37.7"/>
</g>
<g transform="matrix(0.0900481,0,0,0.473619,101.204,-3534.08)">
	<rect x="44.8" y="7881.4" class="st0" width="972.4" height="37.7"/>
</g>
<g transform="matrix(0.0481846,0,0,0.133311,454.599,-550.685)">
	<rect x="-5957.3" y="5475.7" class="st0" width="972.4" height="37.7"/>
</g>
<g transform="matrix(0.17212,-0.0993737,0.446387,0.773164,-4264.21,-6040.13)">
	
		<rect x="3301.5" y="8448.7" transform="matrix(-1 1.207955e-06 -1.207955e-06 -1 7575.4199 16935.1504)" class="st0" width="972.4" height="37.7"/>
</g>
<g transform="matrix(0.110306,-0.0636855,0.0916929,0.158817,-1037.66,-798.056)">
	
		<rect x="3689.4" y="7257.5" transform="matrix(-1 5.920275e-06 -5.920275e-06 -1 8351.2471 14552.6104)" class="st0" width="972.4" height="37.7"/>
</g>
<g transform="matrix(0.110306,-0.0636855,0.0916929,0.158817,-1050.22,-812.682)">
	
		<rect x="3709.6" y="7332.1" transform="matrix(-1 5.920275e-06 -5.920275e-06 -1 8391.668 14701.8418)" class="st0" width="972.4" height="37.7"/>
</g>
<g transform="matrix(0.110306,-0.0636855,0.0916929,0.158817,-1062.67,-824.113)">
	
		<rect x="3738.3" y="7395.6" transform="matrix(-1 5.920275e-06 -5.920275e-06 -1 8449.126 14828.8467)" class="st0" width="972.4" height="37.7"/>
</g>
<g transform="matrix(0.116652,-0.067349,0.0722158,0.125081,-870.022,-471.251)">
	
		<rect x="3633" y="6708.3" transform="matrix(-1 2.557778e-06 -2.557778e-06 -1 8238.377 13454.3301)" class="st0" width="972.4" height="37.7"/>
</g>
<g transform="matrix(0.12113,-0.0699344,0.0722158,0.125081,-874.027,-449.65)">
	
		<rect x="3604" y="6624.8" transform="matrix(-1 5.009541e-06 -5.009541e-06 -1 8180.4751 13287.2412)" class="st0" width="972.4" height="37.7"/>
</g>
<g transform="matrix(0.129529,-0.0747837,0.0916929,0.158817,-1067.52,-724.985)">
	
		<rect x="3570.2" y="7067.1" transform="matrix(-1 7.871896e-07 -7.871896e-07 -1 8112.9185 14171.8164)" class="st0" width="972.4" height="37.7"/>
</g>
<g transform="matrix(0.0389201,-0.0224705,0.296775,0.514029,-2065.36,-4228.86)">
	
		<rect x="-4378.9" y="8205.1" transform="matrix(-1 -8.214967e-06 8.214967e-06 -1 -7785.4556 16447.8398)" class="st0" width="972.4" height="37.7"/>
</g>
<g>
	
		<image style="overflow:visible;enable-background:new    ;" width="1045" height="842" id="_Image2" xlink:href="A645B4F8F74FD709.png"  transform="matrix(0.2778 0 0 0.2778 8.3333 44.4444)">
	</image>
</g>
<g transform="matrix(1.01688,0,-5.64483e-17,1.01688,-1013.22,-4627.54)">
	<path class="st1" d="M1226.6,4599.7H1067l-58.3,58l132.4,159.4l10.6-11.9l131-147L1226.6,4599.7z M1220.8,4613.3l43.3,45.2
		l-122.6,137.6l-114.3-137.6l45.5-45.2H1220.8z"/>
</g>
</svg>
